HIERARCHY
ROOT Hips
{
	OFFSET 0.000000 88.474243 0.000000
	CHANNELS 6 Xposition Yposition Zposition Zrotation Yrotation Xrotation 
	JOINT Hips_Spine
	{
		OFFSET 0.000000 0.000000 0.000000
		CHANNELS 3 Zrotation Yrotation Xrotation
		JOINT Spine
		{
			OFFSET 0.005100 8.711998 -0.691000
			CHANNELS 3 Zrotation Yrotation Xrotation
			JOINT Spine1
			{
				OFFSET -0.009200 8.660301 -1.275000
				CHANNELS 3 Zrotation Yrotation Xrotation
				JOINT Spine2
				{
					OFFSET 0.006300 9.852501 -1.857000
					CHANNELS 3 Zrotation Yrotation Xrotation
					JOINT Spine2_Neck
					{
						OFFSET 0.000000 0.000000 0.000000
						CHANNELS 3 Zrotation Yrotation Xrotation
						JOINT Neck
						{
							OFFSET 0.016300 11.420799 -0.263300
							CHANNELS 3 Zrotation Yrotation Xrotation
							End Site #name: Head
							{
								OFFSET -0.019200 9.262405 2.362500
							}
						}
					}
					JOINT Spine2_LeftShoulder
					{
						OFFSET 0.000000 0.000000 0.000000
						CHANNELS 3 Zrotation Yrotation Xrotation
						JOINT LeftShoulder
						{
							OFFSET 5.616900 6.732201 -0.345700
							CHANNELS 3 Zrotation Yrotation Xrotation
							JOINT LeftArm
							{
								OFFSET 10.664888 -0.183372 -2.440700
								CHANNELS 3 Zrotation Yrotation Xrotation
								JOINT LeftForeArm
								{
									OFFSET 27.459126 0.000000 0.000000
									CHANNELS 3 Zrotation Yrotation Xrotation
									End Site #name: LeftHand
									{
										OFFSET 21.306858 0.000000 0.000000
									}
								}
							}
						}
					}
					JOINT Spine2_RightShoulder
					{
						OFFSET 0.000000 0.000000 0.000000
						CHANNELS 3 Zrotation Yrotation Xrotation
						JOINT RightShoulder
						{
							OFFSET -5.580300 6.737503 -0.344400
							CHANNELS 3 Zrotation Yrotation Xrotation
							JOINT RightArm
							{
								OFFSET -10.679335 -0.188484 -2.383900
								CHANNELS 3 Zrotation Yrotation Xrotation
								JOINT RightForeArm
								{
									OFFSET -27.503529 0.000000 0.000000
									CHANNELS 3 Zrotation Yrotation Xrotation
									End Site #name: RightHand
									{
										OFFSET -21.306808 0.000000 0.000000
									}
								}
							}
						}
					}
				}
			}
		}
	}
	JOINT Hips_LeftUpLeg
	{
		OFFSET 0.000000 0.000000 0.000000
		CHANNELS 3 Zrotation Yrotation Xrotation
		JOINT LeftUpLeg
		{
			OFFSET 6.857700 -6.739601 0.312100
			CHANNELS 3 Zrotation Yrotation Xrotation
			JOINT LeftLeg
			{
				OFFSET -0.367590 -34.731552 -4.572400
				CHANNELS 3 Zrotation Yrotation Xrotation
				End Site #name: LeftFoot
				{
					OFFSET 0.367590 -34.656704 -6.067400
				}
			}
		}
	}
	JOINT Hips_RightUpLeg
	{
		OFFSET 0.000000 0.000000 0.000000
		CHANNELS 3 Zrotation Yrotation Xrotation
		JOINT RightUpLeg
		{
			OFFSET -6.876100 -6.733299 0.301000
			CHANNELS 3 Zrotation Yrotation Xrotation
			JOINT RightLeg
			{
				OFFSET 0.347353 -34.795158 -4.515900
				CHANNELS 3 Zrotation Yrotation Xrotation
				End Site #name: RightFoot
				{
					OFFSET -0.347353 -34.589367 -6.070300
				}
			}
		}
	}
}
MOTION
Frames: 12
Frame Time: 0.041667
-0.464020 -0.235163 -1.686007 -3.688265 -1.487275 -9.513196 0.000000 -0.000000 0.000000 3.796815 -0.267200 12.604103 1.770832 -0.512435 5.336284 0.000000 0.000000 0.000000 2.507739 -0.639909 5.596761 3.084626 -0.639023 8.607397 1.984163 -1.156347 5.598780 -14.493364 -10.695709 1.564253 -55.665682 -30.861318 17.837883 -2.961594 -60.987198 2.362419 2.319610 -1.262645 6.160508 10.458962 3.227618 1.596832 61.239270 36.869589 25.046991 1.477418 38.784327 2.268799 0.000000 -0.000000 -0.000000 7.557849 6.760406 -67.618447 2.067574 -4.239525 63.179299 0.000000 -0.000000 -0.000000 0.315718 -7.243147 -66.314212 0.845467 0.332101 62.540530 
-0.442853 -0.255418 -1.744470 -3.533273 -1.589135 -9.795772 0.000000 -0.000000 0.000000 3.771632 -0.242967 12.562196 1.760441 -0.512788 5.353257 0.000000 0.000000 0.000000 2.526737 -0.663348 5.634261 3.129150 -0.667487 8.667091 2.015624 -1.206217 5.572142 -14.434632 -10.888225 1.543157 -55.694289 -31.883176 18.049987 -2.854450 -60.938458 2.139072 2.346758 -1.278645 6.133197 10.518222 3.163688 1.541469 61.293852 36.879314 24.983646 1.545718 39.198867 2.254066 0.000000 -0.000000 -0.000000 7.466755 6.895665 -67.463248 2.267049 -4.137361 63.255969 0.000000 -0.000000 -0.000000 0.321979 -7.342035 -66.164644 0.815020 0.371204 62.560718 
-0.421829 -0.276921 -1.793959 -3.476215 -1.770425 -10.025857 0.000000 -0.000000 0.000000 3.745178 -0.232953 12.518221 1.755706 -0.518219 5.361590 0.000000 0.000000 0.000000 2.545276 -0.680929 5.671474 3.184831 -0.687241 8.723955 2.050671 -1.250360 5.550769 -14.392560 -11.035185 1.515978 -55.768435 -32.858603 18.307338 -2.738032 -60.753659 1.866086 2.385982 -1.305993 6.108879 10.631987 3.054666 1.488006 61.320864 36.776653 24.821758 1.631254 39.410274 2.235101 0.000000 -0.000000 -0.000000 7.364540 7.004579 -67.283891 2.444610 -4.056560 63.228269 0.000000 -0.000000 -0.000000 0.375302 -7.431927 -66.026862 0.761211 0.383227 62.573053 
-0.400962 -0.302931 -1.832767 -3.509145 -2.035825 -10.191146 0.000000 -0.000000 0.000000 3.727948 -0.244014 12.463970 1.757456 -0.529242 5.365542 0.000000 0.000000 0.000000 2.564582 -0.690698 5.714076 3.248013 -0.691116 8.791243 2.091223 -1.291985 5.526339 -14.380271 -11.121750 1.473352 -55.834346 -33.756869 18.610536 -2.623269 -60.563150 1.584295 2.434164 -1.344089 6.084549 10.800689 2.898985 1.432299 61.311272 36.592936 24.534914 1.729611 39.456820 2.212772 0.000000 -0.000000 -0.000000 7.251441 7.105985 -67.120831 2.596181 -3.998047 63.122917 0.000000 -0.000000 -0.000000 0.440226 -7.528019 -65.918161 0.715310 0.390213 62.551679 
-0.380893 -0.336006 -1.859551 -3.632866 -2.397476 -10.265918 0.000000 -0.000000 0.000000 3.722671 -0.276856 12.415351 1.765105 -0.545516 5.367784 0.000000 0.000000 0.000000 2.582244 -0.692932 5.765438 3.320476 -0.680390 8.884936 2.136212 -1.330726 5.504635 -14.410022 -11.172639 1.433282 -55.929065 -34.522816 18.961167 -2.490137 -60.324743 1.277139 2.491398 -1.393766 6.062802 11.020009 2.700408 1.371965 61.278214 36.316093 24.226046 1.847146 39.402776 2.183639 0.000000 -0.000000 -0.000000 7.122568 7.210450 -67.024554 2.640355 -3.984203 62.998033 0.000000 -0.000000 -0.000000 0.501289 -7.616055 -65.868014 0.662856 0.388160 62.500843 
-0.364130 -0.376868 -1.880081 -3.718843 -2.743281 -10.260411 0.000000 -0.000000 0.000000 3.738099 -0.328897 12.375994 1.776622 -0.566818 5.373537 0.000000 0.000000 0.000000 2.600375 -0.688965 5.806364 3.401889 -0.661505 8.989452 2.182547 -1.360194 5.485417 -14.465620 -11.168730 1.387473 -56.003033 -35.195546 19.255531 -2.364463 -59.981028 0.990712 2.542014 -1.428767 6.060137 11.240157 2.563697 1.333122 61.261008 36.127171 24.040655 1.953237 39.594390 2.173670 0.000000 -0.000000 -0.000000 7.013387 7.337767 -67.047483 2.693882 -3.985563 62.999099 0.000000 -0.000000 -0.000000 0.580006 -7.684795 -65.901055 0.623446 0.366298 62.453256 
-0.352382 -0.422054 -1.899835 -3.766513 -3.085224 -10.160892 0.000000 -0.000000 0.000000 3.782551 -0.400999 12.358182 1.793371 -0.593942 5.393184 0.000000 0.000000 0.000000 2.616603 -0.680060 5.832892 3.478306 -0.632808 9.085610 2.231682 -1.376907 5.471990 -14.550257 -11.111624 1.339528 -56.022377 -35.749307 19.383723 -2.256685 -59.663918 0.735865 2.588162 -1.449241 6.073006 11.478214 2.511972 1.322284 61.240761 36.037767 23.999602 2.040537 39.971363 2.179771 0.000000 -0.000000 -0.000000 6.930798 7.520897 -67.222485 2.795147 -3.984075 63.166171 0.000000 -0.000000 -0.000000 0.686941 -7.738785 -66.044488 0.583492 0.315375 62.414233 
-0.347549 -0.465751 -1.924846 -3.777783 -3.420189 -9.973892 0.000000 -0.000000 0.000000 3.862450 -0.486285 12.351884 1.813302 -0.623392 5.412130 0.000000 0.000000 0.000000 2.632685 -0.666243 5.839121 3.542772 -0.591549 9.171674 2.278825 -1.378544 5.456831 -14.649150 -10.998500 1.282897 -55.967583 -36.216653 19.345394 -2.163209 -59.442840 0.504586 2.627538 -1.448324 6.095428 11.713370 2.559701 1.333005 61.208207 36.054831 24.099001 2.113912 40.563825 2.199711 0.000000 -0.000000 -0.000000 6.883047 7.806860 -67.543383 2.978351 -3.959561 63.498354 0.000000 -0.000000 -0.000000 0.819450 -7.775872 -66.294819 0.540855 0.234545 62.389619 
-0.350740 -0.503807 -1.960963 -3.750227 -3.767830 -9.753940 0.000000 -0.000000 0.000000 3.966850 -0.586684 12.360779 1.835252 -0.653611 5.428793 0.000000 0.000000 0.000000 2.646330 -0.640733 5.826534 3.588461 -0.535349 9.230697 2.323044 -1.363355 5.444289 -14.739235 -10.848054 1.220898 -55.857733 -36.539043 19.184786 -2.078062 -59.270249 0.286685 2.658880 -1.426784 6.125594 11.900611 2.686822 1.365394 61.168509 36.191410 24.319715 2.170722 41.371883 2.230143 0.000000 -0.000000 -0.000000 6.960212 8.054689 -67.945787 3.251079 -3.892240 64.005955 0.000000 -0.000000 -0.000000 0.964140 -7.810869 -66.613483 0.491483 0.136504 62.407325 
-0.362600 -0.533773 -2.006304 -3.691903 -4.093759 -9.568121 0.000000 -0.000000 0.000000 4.071569 -0.683685 12.406499 1.852963 -0.682894 5.461969 0.000000 0.000000 0.000000 2.667191 -0.624633 5.809110 3.623462 -0.505200 9.269162 2.366172 -1.348243 5.435084 -14.805277 -10.732334 1.159949 -55.671992 -36.875570 18.945991 -1.986007 -59.258717 0.088746 2.681109 -1.410938 6.152487 12.050805 2.797264 1.396379 61.030039 36.311915 24.485078 2.203155 42.017947 2.239086 0.000000 -0.000000 -0.000000 7.054556 8.296002 -68.330888 3.536067 -3.779155 64.524170 0.000000 -0.000000 -0.000000 1.052147 -7.797290 -66.895924 0.442117 0.070757 62.470580 
-0.383317 -0.554159 -2.059172 -3.603847 -4.381517 -9.461188 0.000000 -0.000000 0.000000 4.172892 -0.779492 12.476383 1.867274 -0.712232 5.512023 0.000000 0.000000 0.000000 2.692027 -0.618041 5.787449 3.645346 -0.500864 9.257952 2.405693 -1.334081 5.432019 -14.843627 -10.659822 1.099023 -55.444641 -37.213629 18.639457 -1.880771 -59.424235 -0.099344 2.692703 -1.400792 6.177752 12.164868 2.890570 1.423168 60.762273 36.431107 24.548500 2.214377 42.527354 2.226217 0.000000 -0.000000 -0.000000 7.149546 8.540756 -68.623554 3.757529 -3.642264 64.975102 0.000000 -0.000000 -0.000000 1.062863 -7.758910 -67.140450 0.387047 0.033907 62.606830 
-0.414100 -0.566329 -2.118706 -3.509191 -4.621431 -9.408855 0.000000 -0.000000 0.000000 4.274373 -0.875494 12.575088 1.876176 -0.737203 5.572758 0.000000 0.000000 0.000000 2.721959 -0.621021 5.765033 3.660032 -0.519559 9.193603 2.441334 -1.319831 5.437840 -14.851611 -10.613388 1.041482 -55.172455 -37.551583 18.328564 -1.770149 -59.686572 -0.262970 2.694577 -1.399436 6.197836 12.252759 2.951001 1.434307 60.424055 36.554306 24.524199 2.195918 42.826352 2.186887 0.000000 -0.000000 -0.000000 7.265917 8.720929 -68.763000 4.042606 -3.448451 65.277343 0.000000 -0.000000 -0.000000 0.991186 -7.689600 -67.335354 0.327804 0.035433 62.811076 
